<?xml version="1.0" standalone="no"?>
<!DOCTYPE svg PUBLIC "-//W3C//DTD SVG 20010904//EN"
 "http://www.w3.org/TR/2001/REC-SVG-20010904/DTD/svg10.dtd">
<svg version="1.0" xmlns="http://www.w3.org/2000/svg"
 width="90.000000pt" height="90.000000pt" viewBox="0 0 90.000000 90.000000"
 preserveAspectRatio="xMidYMid meet">

<g transform="translate(0.000000,90.000000) scale(0.100000,-0.100000)"
fill="#000000" stroke="none">
<path d="M114 526 c-66 -29 -62 -131 5 -154 103 -36 165 112 65 154 -39 16
-32 16 -70 0z"/>
<path d="M414 526 c-66 -29 -62 -131 5 -154 103 -36 165 112 65 154 -39 16
-32 16 -70 0z"/>
<path d="M714 526 c-66 -29 -62 -131 5 -154 103 -36 165 112 65 154 -39 16
-32 16 -70 0z"/>
</g>
</svg>
